# xmcd
#
# Track frame offsets:
#	150
#	6454
#	27163
#	49461
#	68443
#	87982
#	106546
#	125221
#	145189
#	162924
#	176061
#	194548
#	209124
#	231227
#
# Disc length: 3368 seconds
#
# Revision: 0
# Processed by: cddbd v1.4PL0 Copyright (c) Steve Scherf et al.
# Submitted via: audiograbber 1.82.02
#
DISCID=cc0d260e
DTITLE=Jay Z - The Black Album
DYEAR=2003
DGENRE=Rap
TTITLE0=Intro
TTITLE1=December 4
TTITLE2=What More Can I Say
TTITLE3=Encore
TTITLE4=Change Clothes And Go
TTITLE5=The Threat
TTITLE6=Soundtrack
TTITLE7=Moment Of Clarity
TTITLE8=99 Problems
TTITLE9=My Name Is Hov
TTITLE10=Justify My Thug
TTITLE11=Lucifer
TTITLE12=The Theater
TTITLE13=My First Song
EXTD=
EXTT0=
EXTT1=
EXTT2=
EXTT3=
EXTT4=
EXTT5=
EXTT6=
EXTT7=
EXTT8=
EXTT9=
EXTT10=
EXTT11=
EXTT12=
EXTT13=
PLAYORDER=
